# xmcd CD database file
#
# Track frame offsets:
#	187
#	32195
#	59362
#	75575
#	86680
#	104650
#	126175
#	145775
#	184577
#	199767
#	215867
#	235187
#	250652
#
# Disc length: 3603 seconds
#
# Revision: 3
# Processed by: cddbd v1.5.1PL0 Copyright (c) Steve Scherf et al.
# Submitted via: CDex 1.51
#
DISCID=b90e110d
DTITLE=Stevie Wonder - Natural Wonder [CD1]
DYEAR=1995
DGENRE=Vocal
TTITLE0=Dancing To The Rhyhm
TTITLE1=Love Is In Need Of Love Today
TTITLE2=Master Blaster
TTITLE3=Stevie Ray Blues
TTITLE4=Higher Ground
TTITLE5=Rocket Love
TTITLE6=Stay Gold
TTITLE7=Ribbon In The Sky
TTITLE8=Pastime Paradise
TTITLE9=If It Is Magic
TTITLE10=Ms. and Mr. Little Ones
TTITLE11=Village Ghetto Land
TTITLE12=Tomorrow Robins Will Sing
EXTD=YEAR: 1995
EXTT0=
EXTT1=
EXTT2=
EXTT3=
EXTT4=
EXTT5=
EXTT6=
EXTT7=
EXTT8=
EXTT9=
EXTT10=
EXTT11=
EXTT12=
PLAYORDER=
